<mxfile host="app.diagrams.net" agent="Mozilla/5.0 (Macintosh; Intel Mac OS X 10_15_7) AppleWebKit/537.36 (KHTML, like Gecko) Chrome/132.0.0.0 Safari/537.36" version="26.0.10">
  <diagram name="Page-1" id="5f0bae14-7c28-e335-631c-24af17079c00">
    <mxGraphModel dx="2437" dy="1813" grid="1" gridSize="10" guides="1" tooltips="1" connect="1" arrows="1" fold="1" page="1" pageScale="1" pageWidth="1100" pageHeight="850" background="none" math="0" shadow="0">
      <root>
        <mxCell id="0" />
        <mxCell id="1" parent="0" />
        <mxCell id="39150e848f15840c-1" value="RAG - reference retrieval&lt;br&gt;Cohere Multilingual model" style="verticalAlign=top;align=left;spacingTop=8;spacingLeft=2;spacingRight=12;shape=cube;size=10;direction=south;fontStyle=4;html=1;rounded=0;shadow=0;comic=0;labelBackgroundColor=none;strokeWidth=1;fontFamily=Verdana;fontSize=12" parent="1" vertex="1">
          <mxGeometry x="120" y="70" width="330" height="220" as="geometry" />
        </mxCell>
        <mxCell id="39150e848f15840c-4" value="Semantic search" style="html=1;rounded=0;shadow=0;comic=0;labelBackgroundColor=none;strokeWidth=1;fontFamily=Verdana;fontSize=12;align=center;" parent="1" vertex="1">
          <mxGeometry x="160" y="140" width="110" height="50" as="geometry" />
        </mxCell>
        <mxCell id="39150e848f15840c-5" value="&lt;div&gt;Embedded&lt;/div&gt;&lt;div&gt;&lt;span style=&quot;background-color: transparent; color: light-dark(rgb(0, 0, 0), rgb(255, 255, 255));&quot;&gt;Wiki&amp;nbsp;&lt;/span&gt;&lt;/div&gt;&lt;div&gt;Paragraphs&lt;/div&gt;" style="shape=component;align=left;spacingLeft=36;rounded=0;shadow=0;comic=0;labelBackgroundColor=none;strokeWidth=1;fontFamily=Verdana;fontSize=12;html=1;" parent="1" vertex="1">
          <mxGeometry x="280" y="110" width="120" height="60" as="geometry" />
        </mxCell>
        <mxCell id="39150e848f15840c-11" style="edgeStyle=none;rounded=0;html=1;dashed=1;labelBackgroundColor=none;startArrow=open;startFill=0;startSize=8;endArrow=open;endFill=0;endSize=16;fontFamily=Verdana;fontSize=12;exitX=0;exitY=0.25;exitDx=0;exitDy=0;" parent="1" source="qO4k55GIrpui7z3PYARw-38" target="39150e848f15840c-1" edge="1">
          <mxGeometry relative="1" as="geometry">
            <mxPoint x="484.39999999999986" y="460" as="sourcePoint" />
            <mxPoint x="373.37292953634665" y="249.41399736263884" as="targetPoint" />
          </mxGeometry>
        </mxCell>
        <mxCell id="39150e848f15840c-15" style="edgeStyle=orthogonalEdgeStyle;rounded=0;html=1;labelBackgroundColor=none;startArrow=none;startFill=0;startSize=8;endArrow=open;endFill=0;endSize=16;fontFamily=Verdana;fontSize=12;dashed=1;" parent="1" source="39150e848f15840c-5" target="39150e848f15840c-4" edge="1">
          <mxGeometry relative="1" as="geometry">
            <Array as="points">
              <mxPoint x="310" y="220" />
              <mxPoint x="215" y="220" />
            </Array>
          </mxGeometry>
        </mxCell>
        <mxCell id="39150e848f15840c-18" style="edgeStyle=orthogonalEdgeStyle;rounded=0;html=1;labelBackgroundColor=none;startArrow=none;startFill=0;startSize=8;endArrow=none;endFill=0;endSize=16;fontFamily=Verdana;fontSize=12;" parent="1" target="39150e848f15840c-1" edge="1">
          <mxGeometry relative="1" as="geometry">
            <Array as="points">
              <mxPoint x="285" y="485" />
            </Array>
            <mxPoint x="390" y="480" as="sourcePoint" />
          </mxGeometry>
        </mxCell>
        <mxCell id="qO4k55GIrpui7z3PYARw-6" value="Web UI" style="swimlane;whiteSpace=wrap;html=1;" vertex="1" parent="1">
          <mxGeometry x="390" y="450" width="220" height="220" as="geometry" />
        </mxCell>
        <mxCell id="qO4k55GIrpui7z3PYARw-9" value="LinkedIn Integration" style="rounded=0;whiteSpace=wrap;html=1;" vertex="1" parent="qO4k55GIrpui7z3PYARw-6">
          <mxGeometry x="10" y="40" width="120" height="25" as="geometry" />
        </mxCell>
        <mxCell id="qO4k55GIrpui7z3PYARw-10" value="Q&amp;amp;A flow" style="rounded=0;whiteSpace=wrap;html=1;" vertex="1" parent="qO4k55GIrpui7z3PYARw-6">
          <mxGeometry x="10" y="65" width="120" height="25" as="geometry" />
        </mxCell>
        <mxCell id="qO4k55GIrpui7z3PYARw-18" value="Displayed Story" style="rounded=0;whiteSpace=wrap;html=1;" vertex="1" parent="qO4k55GIrpui7z3PYARw-6">
          <mxGeometry x="50" y="100" width="120" height="50" as="geometry" />
        </mxCell>
        <mxCell id="qO4k55GIrpui7z3PYARw-19" style="edgeStyle=orthogonalEdgeStyle;rounded=0;orthogonalLoop=1;jettySize=auto;html=1;exitX=0.5;exitY=1;exitDx=0;exitDy=0;" edge="1" parent="qO4k55GIrpui7z3PYARw-6" source="qO4k55GIrpui7z3PYARw-18" target="qO4k55GIrpui7z3PYARw-18">
          <mxGeometry relative="1" as="geometry" />
        </mxCell>
        <mxCell id="qO4k55GIrpui7z3PYARw-20" value="References" style="rounded=0;whiteSpace=wrap;html=1;" vertex="1" parent="qO4k55GIrpui7z3PYARw-6">
          <mxGeometry x="50" y="150" width="120" height="50" as="geometry" />
        </mxCell>
        <mxCell id="qO4k55GIrpui7z3PYARw-24" style="edgeStyle=none;rounded=0;html=1;dashed=1;labelBackgroundColor=none;startArrow=none;startFill=0;startSize=8;endArrow=open;endFill=0;endSize=16;fontFamily=Verdana;fontSize=12;entryX=1;entryY=0.75;entryDx=0;entryDy=0;exitX=0.759;exitY=1;exitDx=0;exitDy=0;exitPerimeter=0;" edge="1" parent="1" source="qO4k55GIrpui7z3PYARw-25" target="qO4k55GIrpui7z3PYARw-38">
          <mxGeometry relative="1" as="geometry">
            <mxPoint x="700.0000000000002" y="220" as="sourcePoint" />
            <mxPoint x="470.0000000000002" y="570" as="targetPoint" />
          </mxGeometry>
        </mxCell>
        <mxCell id="qO4k55GIrpui7z3PYARw-27" value="&lt;div&gt;Postgres&lt;/div&gt;Database" style="shape=cylinder3;whiteSpace=wrap;html=1;boundedLbl=1;backgroundOutline=1;size=15;" vertex="1" parent="1">
          <mxGeometry x="495" y="60" width="110" height="125" as="geometry" />
        </mxCell>
        <mxCell id="qO4k55GIrpui7z3PYARw-29" value="Fine-tuning" style="rhombus;whiteSpace=wrap;html=1;" vertex="1" parent="1">
          <mxGeometry x="710" y="190" width="80" height="80" as="geometry" />
        </mxCell>
        <mxCell id="qO4k55GIrpui7z3PYARw-30" value="&lt;div&gt;Pinecone&lt;/div&gt;" style="shape=cylinder3;whiteSpace=wrap;html=1;boundedLbl=1;backgroundOutline=1;size=15;" vertex="1" parent="1">
          <mxGeometry x="360" y="200" width="60" height="80" as="geometry" />
        </mxCell>
        <mxCell id="qO4k55GIrpui7z3PYARw-34" style="edgeStyle=none;rounded=0;html=1;dashed=1;labelBackgroundColor=none;startArrow=none;startFill=0;startSize=8;endArrow=open;endFill=0;endSize=16;fontFamily=Verdana;fontSize=12;exitX=0;exitY=0;exitDx=0;exitDy=27.5;exitPerimeter=0;entryX=0.5;entryY=1;entryDx=0;entryDy=0;" edge="1" parent="1" source="qO4k55GIrpui7z3PYARw-30" target="39150e848f15840c-5">
          <mxGeometry relative="1" as="geometry">
            <mxPoint x="470" y="500" as="sourcePoint" />
            <mxPoint x="357" y="300" as="targetPoint" />
          </mxGeometry>
        </mxCell>
        <mxCell id="qO4k55GIrpui7z3PYARw-35" value="" style="endArrow=none;dashed=1;html=1;rounded=0;entryX=0.391;entryY=0.995;entryDx=0;entryDy=0;entryPerimeter=0;exitX=0.65;exitY=0.05;exitDx=0;exitDy=0;exitPerimeter=0;" edge="1" parent="1" source="qO4k55GIrpui7z3PYARw-38" target="qO4k55GIrpui7z3PYARw-27">
          <mxGeometry width="50" height="50" relative="1" as="geometry">
            <mxPoint x="480" y="330" as="sourcePoint" />
            <mxPoint x="530" y="280" as="targetPoint" />
          </mxGeometry>
        </mxCell>
        <mxCell id="qO4k55GIrpui7z3PYARw-37" value="" style="group" vertex="1" connectable="0" parent="1">
          <mxGeometry x="690" y="160" width="330" height="220" as="geometry" />
        </mxCell>
        <mxCell id="qO4k55GIrpui7z3PYARw-25" value="Textual / image generation" style="verticalAlign=top;align=left;spacingTop=8;spacingLeft=2;spacingRight=12;shape=cube;size=10;direction=south;fontStyle=4;html=1;rounded=0;shadow=0;comic=0;labelBackgroundColor=none;strokeWidth=1;fontFamily=Verdana;fontSize=12" vertex="1" parent="qO4k55GIrpui7z3PYARw-37">
          <mxGeometry width="330" height="220" as="geometry" />
        </mxCell>
        <mxCell id="qO4k55GIrpui7z3PYARw-22" value="Deepseek LLM" style="rounded=1;whiteSpace=wrap;html=1;" vertex="1" parent="qO4k55GIrpui7z3PYARw-37">
          <mxGeometry x="180" y="50" width="120" height="60" as="geometry" />
        </mxCell>
        <mxCell id="qO4k55GIrpui7z3PYARw-23" value="Diffusion-Gan" style="rounded=1;whiteSpace=wrap;html=1;" vertex="1" parent="qO4k55GIrpui7z3PYARw-37">
          <mxGeometry x="180" y="120" width="120" height="60" as="geometry" />
        </mxCell>
        <mxCell id="qO4k55GIrpui7z3PYARw-41" value="Fine-tuning" style="shape=hexagon;perimeter=hexagonPerimeter2;whiteSpace=wrap;html=1;fixedSize=1;" vertex="1" parent="qO4k55GIrpui7z3PYARw-37">
          <mxGeometry x="40" y="80" width="120" height="80" as="geometry" />
        </mxCell>
        <mxCell id="qO4k55GIrpui7z3PYARw-38" value="Backend API" style="rounded=0;whiteSpace=wrap;html=1;" vertex="1" parent="1">
          <mxGeometry x="460" y="320" width="120" height="60" as="geometry" />
        </mxCell>
        <mxCell id="qO4k55GIrpui7z3PYARw-39" style="edgeStyle=none;rounded=0;html=1;dashed=1;labelBackgroundColor=none;startArrow=open;startFill=0;startSize=8;endArrow=open;endFill=0;endSize=16;fontFamily=Verdana;fontSize=12;" edge="1" parent="1">
          <mxGeometry relative="1" as="geometry">
            <mxPoint x="470" y="380" as="sourcePoint" />
            <mxPoint x="470" y="454" as="targetPoint" />
            <Array as="points">
              <mxPoint x="470" y="420" />
            </Array>
          </mxGeometry>
        </mxCell>
        <mxCell id="qO4k55GIrpui7z3PYARw-114" value="" style="endArrow=none;dashed=1;html=1;dashPattern=1 3;strokeWidth=2;rounded=0;" edge="1" parent="1">
          <mxGeometry width="50" height="50" relative="1" as="geometry">
            <mxPoint x="1080" y="710" as="sourcePoint" />
            <mxPoint x="1080" y="40" as="targetPoint" />
          </mxGeometry>
        </mxCell>
        <mxCell id="qO4k55GIrpui7z3PYARw-115" style="edgeStyle=orthogonalEdgeStyle;rounded=0;orthogonalLoop=1;jettySize=auto;html=1;entryX=0.5;entryY=0;entryDx=0;entryDy=0;startArrow=classic;startFill=1;endArrow=none;endFill=0;" edge="1" parent="1" source="qO4k55GIrpui7z3PYARw-116" target="qO4k55GIrpui7z3PYARw-184">
          <mxGeometry relative="1" as="geometry" />
        </mxCell>
        <mxCell id="qO4k55GIrpui7z3PYARw-116" value="Session" style="swimlane;fontStyle=0;childLayout=stackLayout;horizontal=1;startSize=30;horizontalStack=0;resizeParent=1;resizeParentMax=0;resizeLast=0;collapsible=1;marginBottom=0;whiteSpace=wrap;html=1;" vertex="1" parent="1">
          <mxGeometry x="1680" y="205" width="140" height="90" as="geometry" />
        </mxCell>
        <mxCell id="qO4k55GIrpui7z3PYARw-117" value="&lt;u&gt;session_id&lt;/u&gt;: integer" style="text;strokeColor=none;fillColor=none;align=left;verticalAlign=middle;spacingLeft=4;spacingRight=4;overflow=hidden;points=[[0,0.5],[1,0.5]];portConstraint=eastwest;rotatable=0;whiteSpace=wrap;html=1;" vertex="1" parent="qO4k55GIrpui7z3PYARw-116">
          <mxGeometry y="30" width="140" height="30" as="geometry" />
        </mxCell>
        <mxCell id="qO4k55GIrpui7z3PYARw-118" value="timestamp: datetime" style="text;strokeColor=none;fillColor=none;align=left;verticalAlign=middle;spacingLeft=4;spacingRight=4;overflow=hidden;points=[[0,0.5],[1,0.5]];portConstraint=eastwest;rotatable=0;whiteSpace=wrap;html=1;" vertex="1" parent="qO4k55GIrpui7z3PYARw-116">
          <mxGeometry y="60" width="140" height="30" as="geometry" />
        </mxCell>
        <mxCell id="qO4k55GIrpui7z3PYARw-119" value="Order" style="swimlane;fontStyle=0;childLayout=stackLayout;horizontal=1;startSize=30;horizontalStack=0;resizeParent=1;resizeParentMax=0;resizeLast=0;collapsible=1;marginBottom=0;whiteSpace=wrap;html=1;" vertex="1" parent="1">
          <mxGeometry x="1680" y="455" width="140" height="90" as="geometry" />
        </mxCell>
        <mxCell id="qO4k55GIrpui7z3PYARw-120" value="&lt;u&gt;order_id&lt;/u&gt;: integer" style="text;strokeColor=none;fillColor=none;align=left;verticalAlign=middle;spacingLeft=4;spacingRight=4;overflow=hidden;points=[[0,0.5],[1,0.5]];portConstraint=eastwest;rotatable=0;whiteSpace=wrap;html=1;" vertex="1" parent="qO4k55GIrpui7z3PYARw-119">
          <mxGeometry y="30" width="140" height="30" as="geometry" />
        </mxCell>
        <mxCell id="qO4k55GIrpui7z3PYARw-121" value="amount: real" style="text;strokeColor=none;fillColor=none;align=left;verticalAlign=middle;spacingLeft=4;spacingRight=4;overflow=hidden;points=[[0,0.5],[1,0.5]];portConstraint=eastwest;rotatable=0;whiteSpace=wrap;html=1;" vertex="1" parent="qO4k55GIrpui7z3PYARw-119">
          <mxGeometry y="60" width="140" height="30" as="geometry" />
        </mxCell>
        <mxCell id="qO4k55GIrpui7z3PYARw-122" value="Story" style="swimlane;fontStyle=0;childLayout=stackLayout;horizontal=1;startSize=30;horizontalStack=0;resizeParent=1;resizeParentMax=0;resizeLast=0;collapsible=1;marginBottom=0;whiteSpace=wrap;html=1;" vertex="1" parent="1">
          <mxGeometry x="2330" y="530" width="190" height="90" as="geometry" />
        </mxCell>
        <mxCell id="qO4k55GIrpui7z3PYARw-123" value="&lt;u&gt;story_id&lt;/u&gt;: integer" style="text;strokeColor=none;fillColor=none;align=left;verticalAlign=middle;spacingLeft=4;spacingRight=4;overflow=hidden;points=[[0,0.5],[1,0.5]];portConstraint=eastwest;rotatable=0;whiteSpace=wrap;html=1;" vertex="1" parent="qO4k55GIrpui7z3PYARw-122">
          <mxGeometry y="30" width="190" height="30" as="geometry" />
        </mxCell>
        <mxCell id="qO4k55GIrpui7z3PYARw-124" value="generated_story_text: string" style="text;strokeColor=none;fillColor=none;align=left;verticalAlign=middle;spacingLeft=4;spacingRight=4;overflow=hidden;points=[[0,0.5],[1,0.5]];portConstraint=eastwest;rotatable=0;whiteSpace=wrap;html=1;" vertex="1" parent="qO4k55GIrpui7z3PYARw-122">
          <mxGeometry y="60" width="190" height="30" as="geometry" />
        </mxCell>
        <mxCell id="qO4k55GIrpui7z3PYARw-125" style="edgeStyle=orthogonalEdgeStyle;rounded=0;orthogonalLoop=1;jettySize=auto;html=1;exitX=0;exitY=0.5;exitDx=0;exitDy=0;entryX=1;entryY=0.5;entryDx=0;entryDy=0;" edge="1" parent="1" source="qO4k55GIrpui7z3PYARw-126" target="qO4k55GIrpui7z3PYARw-171">
          <mxGeometry relative="1" as="geometry" />
        </mxCell>
        <mxCell id="qO4k55GIrpui7z3PYARw-126" value="Completes" style="rhombus;whiteSpace=wrap;html=1;" vertex="1" parent="1">
          <mxGeometry x="1450" y="335" width="155" height="80" as="geometry" />
        </mxCell>
        <mxCell id="qO4k55GIrpui7z3PYARw-127" value="Temp Story" style="swimlane;fontStyle=0;childLayout=stackLayout;horizontal=1;startSize=30;horizontalStack=0;resizeParent=1;resizeParentMax=0;resizeLast=0;collapsible=1;marginBottom=0;whiteSpace=wrap;html=1;" vertex="1" parent="1">
          <mxGeometry x="2330" y="315" width="180" height="60" as="geometry" />
        </mxCell>
        <mxCell id="qO4k55GIrpui7z3PYARw-128" value="Display Story" style="swimlane;fontStyle=0;childLayout=stackLayout;horizontal=1;startSize=30;horizontalStack=0;resizeParent=1;resizeParentMax=0;resizeLast=0;collapsible=1;marginBottom=0;whiteSpace=wrap;html=1;" vertex="1" parent="1">
          <mxGeometry x="2540" y="315" width="180" height="90" as="geometry" />
        </mxCell>
        <mxCell id="qO4k55GIrpui7z3PYARw-129" value="references: string" style="text;strokeColor=none;fillColor=none;align=left;verticalAlign=middle;spacingLeft=4;spacingRight=4;overflow=hidden;points=[[0,0.5],[1,0.5]];portConstraint=eastwest;rotatable=0;whiteSpace=wrap;html=1;" vertex="1" parent="qO4k55GIrpui7z3PYARw-128">
          <mxGeometry y="30" width="180" height="30" as="geometry" />
        </mxCell>
        <mxCell id="qO4k55GIrpui7z3PYARw-130" value="reference summary: string" style="text;strokeColor=none;fillColor=none;align=left;verticalAlign=middle;spacingLeft=4;spacingRight=4;overflow=hidden;points=[[0,0.5],[1,0.5]];portConstraint=eastwest;rotatable=0;whiteSpace=wrap;html=1;" vertex="1" parent="qO4k55GIrpui7z3PYARw-128">
          <mxGeometry y="60" width="180" height="30" as="geometry" />
        </mxCell>
        <mxCell id="qO4k55GIrpui7z3PYARw-131" style="edgeStyle=orthogonalEdgeStyle;rounded=0;orthogonalLoop=1;jettySize=auto;html=1;exitX=1;exitY=0.5;exitDx=0;exitDy=0;shape=link;" edge="1" parent="1" source="qO4k55GIrpui7z3PYARw-132" target="qO4k55GIrpui7z3PYARw-123">
          <mxGeometry relative="1" as="geometry" />
        </mxCell>
        <mxCell id="qO4k55GIrpui7z3PYARw-132" value="Generates" style="rhombus;whiteSpace=wrap;html=1;" vertex="1" parent="1">
          <mxGeometry x="2160" y="160" width="155" height="80" as="geometry" />
        </mxCell>
        <mxCell id="qO4k55GIrpui7z3PYARw-133" style="edgeStyle=orthogonalEdgeStyle;rounded=0;orthogonalLoop=1;jettySize=auto;html=1;exitX=1;exitY=0.5;exitDx=0;exitDy=0;entryX=0;entryY=0.5;entryDx=0;entryDy=0;startArrow=classic;startFill=1;endArrow=none;endFill=0;" edge="1" parent="1" source="qO4k55GIrpui7z3PYARw-135" target="qO4k55GIrpui7z3PYARw-132">
          <mxGeometry relative="1" as="geometry">
            <mxPoint x="1850" y="380" as="sourcePoint" />
          </mxGeometry>
        </mxCell>
        <mxCell id="qO4k55GIrpui7z3PYARw-134" value="API Call" style="swimlane;fontStyle=0;childLayout=stackLayout;horizontal=1;startSize=30;horizontalStack=0;resizeParent=1;resizeParentMax=0;resizeLast=0;collapsible=1;marginBottom=0;whiteSpace=wrap;html=1;" vertex="1" parent="1">
          <mxGeometry x="2040" y="440" width="140" height="90" as="geometry" />
        </mxCell>
        <mxCell id="qO4k55GIrpui7z3PYARw-135" value="&lt;u&gt;transaction_id&lt;/u&gt;: string" style="text;strokeColor=none;fillColor=none;align=left;verticalAlign=middle;spacingLeft=4;spacingRight=4;overflow=hidden;points=[[0,0.5],[1,0.5]];portConstraint=eastwest;rotatable=0;whiteSpace=wrap;html=1;" vertex="1" parent="qO4k55GIrpui7z3PYARw-134">
          <mxGeometry y="30" width="140" height="30" as="geometry" />
        </mxCell>
        <mxCell id="qO4k55GIrpui7z3PYARw-136" value="prompt: string" style="text;strokeColor=none;fillColor=none;align=left;verticalAlign=middle;spacingLeft=4;spacingRight=4;overflow=hidden;points=[[0,0.5],[1,0.5]];portConstraint=eastwest;rotatable=0;whiteSpace=wrap;html=1;" vertex="1" parent="qO4k55GIrpui7z3PYARw-134">
          <mxGeometry y="60" width="140" height="30" as="geometry" />
        </mxCell>
        <mxCell id="qO4k55GIrpui7z3PYARw-137" style="edgeStyle=orthogonalEdgeStyle;rounded=0;orthogonalLoop=1;jettySize=auto;html=1;shape=link;" edge="1" parent="1" source="qO4k55GIrpui7z3PYARw-139" target="qO4k55GIrpui7z3PYARw-144">
          <mxGeometry relative="1" as="geometry" />
        </mxCell>
        <mxCell id="qO4k55GIrpui7z3PYARw-138" style="edgeStyle=orthogonalEdgeStyle;rounded=0;orthogonalLoop=1;jettySize=auto;html=1;exitX=0.5;exitY=0;exitDx=0;exitDy=0;entryX=0.997;entryY=0.481;entryDx=0;entryDy=0;entryPerimeter=0;" edge="1" parent="1" source="qO4k55GIrpui7z3PYARw-139" target="qO4k55GIrpui7z3PYARw-186">
          <mxGeometry relative="1" as="geometry" />
        </mxCell>
        <mxCell id="qO4k55GIrpui7z3PYARw-139" value="Initiates" style="rhombus;whiteSpace=wrap;html=1;" vertex="1" parent="1">
          <mxGeometry x="1843.75" y="455" width="152.5" height="75" as="geometry" />
        </mxCell>
        <mxCell id="qO4k55GIrpui7z3PYARw-140" style="edgeStyle=orthogonalEdgeStyle;rounded=0;orthogonalLoop=1;jettySize=auto;html=1;exitX=0.5;exitY=0;exitDx=0;exitDy=0;entryX=0;entryY=0.5;entryDx=0;entryDy=0;" edge="1" parent="1" source="qO4k55GIrpui7z3PYARw-142" target="qO4k55GIrpui7z3PYARw-127">
          <mxGeometry relative="1" as="geometry">
            <mxPoint x="2320" y="320" as="targetPoint" />
          </mxGeometry>
        </mxCell>
        <mxCell id="qO4k55GIrpui7z3PYARw-141" style="edgeStyle=orthogonalEdgeStyle;rounded=0;orthogonalLoop=1;jettySize=auto;html=1;exitX=1;exitY=0.5;exitDx=0;exitDy=0;entryX=0;entryY=0.5;entryDx=0;entryDy=0;shape=link;" edge="1" parent="1" source="qO4k55GIrpui7z3PYARw-142" target="qO4k55GIrpui7z3PYARw-151">
          <mxGeometry relative="1" as="geometry" />
        </mxCell>
        <mxCell id="qO4k55GIrpui7z3PYARw-142" value="identifies" style="rhombus;whiteSpace=wrap;html=1;" vertex="1" parent="1">
          <mxGeometry x="2210" y="765" width="155" height="80" as="geometry" />
        </mxCell>
        <mxCell id="qO4k55GIrpui7z3PYARw-143" style="edgeStyle=orthogonalEdgeStyle;rounded=0;orthogonalLoop=1;jettySize=auto;html=1;exitX=0;exitY=0.5;exitDx=0;exitDy=0;entryX=0.994;entryY=-0.043;entryDx=0;entryDy=0;entryPerimeter=0;" edge="1" parent="1" source="qO4k55GIrpui7z3PYARw-142" target="qO4k55GIrpui7z3PYARw-157">
          <mxGeometry relative="1" as="geometry">
            <Array as="points">
              <mxPoint x="2210" y="795" />
              <mxPoint x="2179" y="795" />
            </Array>
          </mxGeometry>
        </mxCell>
        <mxCell id="qO4k55GIrpui7z3PYARw-144" value="Transaction" style="swimlane;fontStyle=0;childLayout=stackLayout;horizontal=1;startSize=30;horizontalStack=0;resizeParent=1;resizeParentMax=0;resizeLast=0;collapsible=1;marginBottom=0;whiteSpace=wrap;html=1;" vertex="1" parent="1">
          <mxGeometry x="1850" y="590" width="140" height="60" as="geometry" />
        </mxCell>
        <mxCell id="qO4k55GIrpui7z3PYARw-145" value="&lt;u&gt;transaction_id&lt;/u&gt;: string" style="text;strokeColor=none;fillColor=none;align=left;verticalAlign=middle;spacingLeft=4;spacingRight=4;overflow=hidden;points=[[0,0.5],[1,0.5]];portConstraint=eastwest;rotatable=0;whiteSpace=wrap;html=1;" vertex="1" parent="qO4k55GIrpui7z3PYARw-144">
          <mxGeometry y="30" width="140" height="30" as="geometry" />
        </mxCell>
        <mxCell id="qO4k55GIrpui7z3PYARw-146" style="edgeStyle=orthogonalEdgeStyle;rounded=0;orthogonalLoop=1;jettySize=auto;html=1;exitX=0.5;exitY=0;exitDx=0;exitDy=0;entryX=0.496;entryY=1.026;entryDx=0;entryDy=0;entryPerimeter=0;" edge="1" parent="1" source="qO4k55GIrpui7z3PYARw-127" target="qO4k55GIrpui7z3PYARw-124">
          <mxGeometry relative="1" as="geometry">
            <Array as="points">
              <mxPoint x="2420" y="280" />
              <mxPoint x="2514" y="280" />
            </Array>
          </mxGeometry>
        </mxCell>
        <mxCell id="qO4k55GIrpui7z3PYARw-147" style="edgeStyle=orthogonalEdgeStyle;rounded=0;orthogonalLoop=1;jettySize=auto;html=1;entryX=0.504;entryY=0.974;entryDx=0;entryDy=0;entryPerimeter=0;" edge="1" parent="1" source="qO4k55GIrpui7z3PYARw-128" target="qO4k55GIrpui7z3PYARw-124">
          <mxGeometry relative="1" as="geometry" />
        </mxCell>
        <mxCell id="qO4k55GIrpui7z3PYARw-148" value="" style="group" vertex="1" connectable="0" parent="1">
          <mxGeometry x="2470" y="730" width="200" height="215" as="geometry" />
        </mxCell>
        <mxCell id="qO4k55GIrpui7z3PYARw-149" value="&lt;span style=&quot;background-color: rgb(230, 255, 204);&quot;&gt;Wiki Reference&lt;/span&gt;" style="swimlane;fontStyle=0;childLayout=stackLayout;horizontal=1;startSize=30;horizontalStack=0;resizeParent=1;resizeParentMax=0;resizeLast=0;collapsible=1;marginBottom=0;whiteSpace=wrap;html=1;" vertex="1" parent="qO4k55GIrpui7z3PYARw-148">
          <mxGeometry width="200" height="150" as="geometry" />
        </mxCell>
        <mxCell id="qO4k55GIrpui7z3PYARw-150" value="&lt;u&gt;wiki_page_id&lt;/u&gt;: string" style="text;strokeColor=none;fillColor=none;align=left;verticalAlign=middle;spacingLeft=4;spacingRight=4;overflow=hidden;points=[[0,0.5],[1,0.5]];portConstraint=eastwest;rotatable=0;whiteSpace=wrap;html=1;" vertex="1" parent="qO4k55GIrpui7z3PYARw-149">
          <mxGeometry y="30" width="200" height="30" as="geometry" />
        </mxCell>
        <mxCell id="qO4k55GIrpui7z3PYARw-151" value="text_corpus: string" style="text;strokeColor=none;fillColor=none;align=left;verticalAlign=middle;spacingLeft=4;spacingRight=4;overflow=hidden;points=[[0,0.5],[1,0.5]];portConstraint=eastwest;rotatable=0;whiteSpace=wrap;html=1;" vertex="1" parent="qO4k55GIrpui7z3PYARw-149">
          <mxGeometry y="60" width="200" height="30" as="geometry" />
        </mxCell>
        <mxCell id="qO4k55GIrpui7z3PYARw-187" value="url: string" style="text;strokeColor=none;fillColor=none;align=left;verticalAlign=middle;spacingLeft=4;spacingRight=4;overflow=hidden;points=[[0,0.5],[1,0.5]];portConstraint=eastwest;rotatable=0;whiteSpace=wrap;html=1;" vertex="1" parent="qO4k55GIrpui7z3PYARw-149">
          <mxGeometry y="90" width="200" height="30" as="geometry" />
        </mxCell>
        <mxCell id="qO4k55GIrpui7z3PYARw-152" value="value: embedding vector" style="text;strokeColor=none;fillColor=none;align=left;verticalAlign=middle;spacingLeft=4;spacingRight=4;overflow=hidden;points=[[0,0.5],[1,0.5]];portConstraint=eastwest;rotatable=0;whiteSpace=wrap;html=1;" vertex="1" parent="qO4k55GIrpui7z3PYARw-149">
          <mxGeometry y="120" width="200" height="30" as="geometry" />
        </mxCell>
        <mxCell id="qO4k55GIrpui7z3PYARw-154" value="" style="group" vertex="1" connectable="0" parent="1">
          <mxGeometry x="2030" y="735" width="140" height="155" as="geometry" />
        </mxCell>
        <mxCell id="qO4k55GIrpui7z3PYARw-155" value="SBERT Call" style="swimlane;fontStyle=0;childLayout=stackLayout;horizontal=1;startSize=30;horizontalStack=0;resizeParent=1;resizeParentMax=0;resizeLast=0;collapsible=1;marginBottom=0;whiteSpace=wrap;html=1;" vertex="1" parent="qO4k55GIrpui7z3PYARw-154">
          <mxGeometry width="140" height="90" as="geometry" />
        </mxCell>
        <mxCell id="qO4k55GIrpui7z3PYARw-156" value="&lt;u&gt;transaction_id&lt;/u&gt;: string" style="text;strokeColor=none;fillColor=none;align=left;verticalAlign=middle;spacingLeft=4;spacingRight=4;overflow=hidden;points=[[0,0.5],[1,0.5]];portConstraint=eastwest;rotatable=0;whiteSpace=wrap;html=1;" vertex="1" parent="qO4k55GIrpui7z3PYARw-155">
          <mxGeometry y="30" width="140" height="30" as="geometry" />
        </mxCell>
        <mxCell id="qO4k55GIrpui7z3PYARw-157" value="corpus: string" style="text;strokeColor=none;fillColor=none;align=left;verticalAlign=middle;spacingLeft=4;spacingRight=4;overflow=hidden;points=[[0,0.5],[1,0.5]];portConstraint=eastwest;rotatable=0;whiteSpace=wrap;html=1;" vertex="1" parent="qO4k55GIrpui7z3PYARw-155">
          <mxGeometry y="60" width="140" height="30" as="geometry" />
        </mxCell>
        <mxCell id="qO4k55GIrpui7z3PYARw-158" value="corpus: length has be greater than zero" style="text;strokeColor=none;fillColor=none;align=left;verticalAlign=middle;spacingLeft=4;spacingRight=4;overflow=hidden;points=[[0,0.5],[1,0.5]];portConstraint=eastwest;rotatable=0;whiteSpace=wrap;html=1;" vertex="1" parent="qO4k55GIrpui7z3PYARw-154">
          <mxGeometry y="90" width="140" height="65" as="geometry" />
        </mxCell>
        <mxCell id="qO4k55GIrpui7z3PYARw-159" style="edgeStyle=orthogonalEdgeStyle;rounded=0;orthogonalLoop=1;jettySize=auto;html=1;exitX=0;exitY=0.5;exitDx=0;exitDy=0;entryX=1;entryY=0.5;entryDx=0;entryDy=0;" edge="1" parent="1" source="qO4k55GIrpui7z3PYARw-135" target="qO4k55GIrpui7z3PYARw-145">
          <mxGeometry relative="1" as="geometry" />
        </mxCell>
        <mxCell id="qO4k55GIrpui7z3PYARw-160" style="edgeStyle=orthogonalEdgeStyle;rounded=0;orthogonalLoop=1;jettySize=auto;html=1;exitX=0;exitY=0.5;exitDx=0;exitDy=0;entryX=1;entryY=0.5;entryDx=0;entryDy=0;" edge="1" parent="1" source="qO4k55GIrpui7z3PYARw-156" target="qO4k55GIrpui7z3PYARw-145">
          <mxGeometry relative="1" as="geometry">
            <Array as="points">
              <mxPoint x="2010" y="780" />
              <mxPoint x="2010" y="635" />
            </Array>
          </mxGeometry>
        </mxCell>
        <mxCell id="qO4k55GIrpui7z3PYARw-161" style="edgeStyle=orthogonalEdgeStyle;rounded=0;orthogonalLoop=1;jettySize=auto;html=1;exitX=0;exitY=0.5;exitDx=0;exitDy=0;entryX=0;entryY=0.5;entryDx=0;entryDy=0;endArrow=none;endFill=0;" edge="1" parent="1" source="qO4k55GIrpui7z3PYARw-162" target="qO4k55GIrpui7z3PYARw-175">
          <mxGeometry relative="1" as="geometry" />
        </mxCell>
        <mxCell id="qO4k55GIrpui7z3PYARw-162" value="establishes" style="rhombus;whiteSpace=wrap;html=1;" vertex="1" parent="1">
          <mxGeometry x="1235" y="755" width="155" height="80" as="geometry" />
        </mxCell>
        <mxCell id="qO4k55GIrpui7z3PYARw-163" value="" style="group" vertex="1" connectable="0" parent="1">
          <mxGeometry x="1220" y="204" width="140" height="431" as="geometry" />
        </mxCell>
        <mxCell id="qO4k55GIrpui7z3PYARw-164" value="User" style="swimlane;fontStyle=0;childLayout=stackLayout;horizontal=1;startSize=30;horizontalStack=0;resizeParent=1;resizeParentMax=0;resizeLast=0;collapsible=1;marginBottom=0;whiteSpace=wrap;html=1;" vertex="1" parent="qO4k55GIrpui7z3PYARw-163">
          <mxGeometry width="140" height="390" as="geometry" />
        </mxCell>
        <mxCell id="qO4k55GIrpui7z3PYARw-165" value="&lt;u&gt;user_id&lt;/u&gt;: integer" style="text;strokeColor=none;fillColor=none;align=left;verticalAlign=middle;spacingLeft=4;spacingRight=4;overflow=hidden;points=[[0,0.5],[1,0.5]];portConstraint=eastwest;rotatable=0;whiteSpace=wrap;html=1;" vertex="1" parent="qO4k55GIrpui7z3PYARw-164">
          <mxGeometry y="30" width="140" height="30" as="geometry" />
        </mxCell>
        <mxCell id="qO4k55GIrpui7z3PYARw-166" value="birth_date: date&amp;nbsp;" style="text;strokeColor=none;fillColor=none;align=left;verticalAlign=middle;spacingLeft=4;spacingRight=4;overflow=hidden;points=[[0,0.5],[1,0.5]];portConstraint=eastwest;rotatable=0;whiteSpace=wrap;html=1;" vertex="1" parent="qO4k55GIrpui7z3PYARw-164">
          <mxGeometry y="60" width="140" height="30" as="geometry" />
        </mxCell>
        <mxCell id="qO4k55GIrpui7z3PYARw-167" value="birth_location: string" style="text;strokeColor=none;fillColor=none;align=left;verticalAlign=middle;spacingLeft=4;spacingRight=4;overflow=hidden;points=[[0,0.5],[1,0.5]];portConstraint=eastwest;rotatable=0;whiteSpace=wrap;html=1;" vertex="1" parent="qO4k55GIrpui7z3PYARw-164">
          <mxGeometry y="90" width="140" height="30" as="geometry" />
        </mxCell>
        <mxCell id="qO4k55GIrpui7z3PYARw-168" value="primary_residence: string" style="text;strokeColor=none;fillColor=none;align=left;verticalAlign=middle;spacingLeft=4;spacingRight=4;overflow=hidden;points=[[0,0.5],[1,0.5]];portConstraint=eastwest;rotatable=0;whiteSpace=wrap;html=1;" vertex="1" parent="qO4k55GIrpui7z3PYARw-164">
          <mxGeometry y="120" width="140" height="30" as="geometry" />
        </mxCell>
        <mxCell id="qO4k55GIrpui7z3PYARw-169" value="current_location: string" style="text;strokeColor=none;fillColor=none;align=left;verticalAlign=middle;spacingLeft=4;spacingRight=4;overflow=hidden;points=[[0,0.5],[1,0.5]];portConstraint=eastwest;rotatable=0;whiteSpace=wrap;html=1;" vertex="1" parent="qO4k55GIrpui7z3PYARw-164">
          <mxGeometry y="150" width="140" height="30" as="geometry" />
        </mxCell>
        <mxCell id="qO4k55GIrpui7z3PYARw-170" value="college: string" style="text;strokeColor=none;fillColor=none;align=left;verticalAlign=middle;spacingLeft=4;spacingRight=4;overflow=hidden;points=[[0,0.5],[1,0.5]];portConstraint=eastwest;rotatable=0;whiteSpace=wrap;html=1;" vertex="1" parent="qO4k55GIrpui7z3PYARw-164">
          <mxGeometry y="180" width="140" height="30" as="geometry" />
        </mxCell>
        <mxCell id="qO4k55GIrpui7z3PYARw-171" value="educational_level: string" style="text;strokeColor=none;fillColor=none;align=left;verticalAlign=middle;spacingLeft=4;spacingRight=4;overflow=hidden;points=[[0,0.5],[1,0.5]];portConstraint=eastwest;rotatable=0;whiteSpace=wrap;html=1;" vertex="1" parent="qO4k55GIrpui7z3PYARw-164">
          <mxGeometry y="210" width="140" height="30" as="geometry" />
        </mxCell>
        <mxCell id="qO4k55GIrpui7z3PYARw-172" value="parental_income: integer" style="text;strokeColor=none;fillColor=none;align=left;verticalAlign=middle;spacingLeft=4;spacingRight=4;overflow=hidden;points=[[0,0.5],[1,0.5]];portConstraint=eastwest;rotatable=0;whiteSpace=wrap;html=1;" vertex="1" parent="qO4k55GIrpui7z3PYARw-164">
          <mxGeometry y="240" width="140" height="30" as="geometry" />
        </mxCell>
        <mxCell id="qO4k55GIrpui7z3PYARw-173" value="primary_interest: string" style="text;strokeColor=none;fillColor=none;align=left;verticalAlign=middle;spacingLeft=4;spacingRight=4;overflow=hidden;points=[[0,0.5],[1,0.5]];portConstraint=eastwest;rotatable=0;whiteSpace=wrap;html=1;" vertex="1" parent="qO4k55GIrpui7z3PYARw-164">
          <mxGeometry y="270" width="140" height="30" as="geometry" />
        </mxCell>
        <mxCell id="qO4k55GIrpui7z3PYARw-174" value="profession: string" style="text;strokeColor=none;fillColor=none;align=left;verticalAlign=middle;spacingLeft=4;spacingRight=4;overflow=hidden;points=[[0,0.5],[1,0.5]];portConstraint=eastwest;rotatable=0;whiteSpace=wrap;html=1;" vertex="1" parent="qO4k55GIrpui7z3PYARw-164">
          <mxGeometry y="300" width="140" height="30" as="geometry" />
        </mxCell>
        <mxCell id="qO4k55GIrpui7z3PYARw-175" value="religion: string" style="text;strokeColor=none;fillColor=none;align=left;verticalAlign=middle;spacingLeft=4;spacingRight=4;overflow=hidden;points=[[0,0.5],[1,0.5]];portConstraint=eastwest;rotatable=0;whiteSpace=wrap;html=1;" vertex="1" parent="qO4k55GIrpui7z3PYARw-164">
          <mxGeometry y="330" width="140" height="30" as="geometry" />
        </mxCell>
        <mxCell id="qO4k55GIrpui7z3PYARw-176" value="race: integer" style="text;strokeColor=none;fillColor=none;align=left;verticalAlign=middle;spacingLeft=4;spacingRight=4;overflow=hidden;points=[[0,0.5],[1,0.5]];portConstraint=eastwest;rotatable=0;whiteSpace=wrap;html=1;" vertex="1" parent="qO4k55GIrpui7z3PYARw-164">
          <mxGeometry y="360" width="140" height="30" as="geometry" />
        </mxCell>
        <mxCell id="qO4k55GIrpui7z3PYARw-177" value="&lt;span style=&quot;color: rgb(0, 0, 0); font-family: Helvetica; font-size: 12px; font-style: normal; font-variant-ligatures: normal; font-variant-caps: normal; font-weight: 400; letter-spacing: normal; orphans: 2; text-align: left; text-indent: 0px; text-transform: none; widows: 2; word-spacing: 0px; -webkit-text-stroke-width: 0px; white-space: normal; background-color: rgb(251, 251, 251); text-decoration-thickness: initial; text-decoration-style: initial; text-decoration-color: initial; display: inline !important; float: none;&quot;&gt;constraint: birth_date cannot exceed today&#39;s date&amp;nbsp;&lt;/span&gt;" style="text;whiteSpace=wrap;html=1;" vertex="1" parent="qO4k55GIrpui7z3PYARw-163">
          <mxGeometry y="390" width="140" height="40" as="geometry" />
        </mxCell>
        <mxCell id="qO4k55GIrpui7z3PYARw-178" style="edgeStyle=orthogonalEdgeStyle;rounded=0;orthogonalLoop=1;jettySize=auto;html=1;entryX=1;entryY=0.5;entryDx=0;entryDy=0;endArrow=none;endFill=0;" edge="1" parent="1" source="qO4k55GIrpui7z3PYARw-177" target="qO4k55GIrpui7z3PYARw-162">
          <mxGeometry relative="1" as="geometry" />
        </mxCell>
        <mxCell id="qO4k55GIrpui7z3PYARw-179" value="" style="endArrow=none;dashed=1;html=1;rounded=0;" edge="1" parent="1">
          <mxGeometry width="50" height="50" relative="1" as="geometry">
            <mxPoint x="2000" y="665" as="sourcePoint" />
            <mxPoint x="2000" y="605" as="targetPoint" />
          </mxGeometry>
        </mxCell>
        <mxCell id="qO4k55GIrpui7z3PYARw-180" value="total" style="text;html=1;align=center;verticalAlign=middle;resizable=0;points=[];autosize=1;strokeColor=none;fillColor=none;" vertex="1" parent="1">
          <mxGeometry x="1970" y="560" width="50" height="30" as="geometry" />
        </mxCell>
        <mxCell id="qO4k55GIrpui7z3PYARw-181" value="" style="endArrow=none;dashed=1;html=1;rounded=0;" edge="1" parent="1">
          <mxGeometry width="50" height="50" relative="1" as="geometry">
            <mxPoint x="2450" y="265" as="sourcePoint" />
            <mxPoint x="2580" y="265" as="targetPoint" />
          </mxGeometry>
        </mxCell>
        <mxCell id="qO4k55GIrpui7z3PYARw-182" value="Total" style="text;html=1;align=center;verticalAlign=middle;whiteSpace=wrap;rounded=0;" vertex="1" parent="1">
          <mxGeometry x="2580" y="245" width="60" height="30" as="geometry" />
        </mxCell>
        <mxCell id="qO4k55GIrpui7z3PYARw-183" style="edgeStyle=orthogonalEdgeStyle;rounded=0;orthogonalLoop=1;jettySize=auto;html=1;exitX=0.5;exitY=1;exitDx=0;exitDy=0;" edge="1" parent="1" source="qO4k55GIrpui7z3PYARw-184">
          <mxGeometry relative="1" as="geometry">
            <mxPoint x="1749.5" y="455" as="targetPoint" />
          </mxGeometry>
        </mxCell>
        <mxCell id="qO4k55GIrpui7z3PYARw-184" value="Paid_by" style="rhombus;whiteSpace=wrap;html=1;" vertex="1" parent="1">
          <mxGeometry x="1672.5" y="340" width="155" height="80" as="geometry" />
        </mxCell>
        <mxCell id="qO4k55GIrpui7z3PYARw-185" style="edgeStyle=orthogonalEdgeStyle;rounded=0;orthogonalLoop=1;jettySize=auto;html=1;exitX=0;exitY=0.5;exitDx=0;exitDy=0;entryX=1;entryY=0.5;entryDx=0;entryDy=0;endArrow=none;endFill=0;shape=link;" edge="1" parent="1" source="qO4k55GIrpui7z3PYARw-186" target="qO4k55GIrpui7z3PYARw-126">
          <mxGeometry relative="1" as="geometry" />
        </mxCell>
        <mxCell id="qO4k55GIrpui7z3PYARw-186" value="" style="rounded=0;whiteSpace=wrap;html=1;fillColor=none;" vertex="1" parent="1">
          <mxGeometry x="1660" y="185" width="183.75" height="380" as="geometry" />
        </mxCell>
      </root>
    </mxGraphModel>
  </diagram>
</mxfile>
